<svg xmlns="http://www.w3.org/2000/svg" viewBox="0 0 1200 540" font-family="Poppins, sans-serif" width="1200" height="540">
<defs>
  <radialGradient id="glow" cx="50%" cy="58%" r="65%">
    <stop offset="0%" stop-color="#FBF7EF"/>
    <stop offset="100%" stop-color="#F4EEE4"/>
  </radialGradient>
  <linearGradient id="body" x1="0" y1="0" x2="0" y2="1">
    <stop offset="0%" stop-color="#EEE0C8"/>
    <stop offset="100%" stop-color="#E6D3AF"/>
  </linearGradient>
  <filter id="soft" x="-25%" y="-25%" width="150%" height="150%">
    <feDropShadow dx="0" dy="7" stdDeviation="9" flood-color="#26221F" flood-opacity="0.15"/>
  </filter>
</defs>
<rect x="0" y="0" width="1200" height="540" rx="28" fill="url(#glow)"/>
<g fill="#26221F" opacity="0.05"><circle cx="40" cy="500" r="1.5"/><circle cx="66" cy="500" r="1.5"/><circle cx="92" cy="500" r="1.5"/><circle cx="118" cy="500" r="1.5"/><circle cx="144" cy="500" r="1.5"/><circle cx="170" cy="500" r="1.5"/><circle cx="196" cy="500" r="1.5"/><circle cx="222" cy="500" r="1.5"/><circle cx="248" cy="500" r="1.5"/><circle cx="274" cy="500" r="1.5"/><circle cx="300" cy="500" r="1.5"/><circle cx="326" cy="500" r="1.5"/><circle cx="352" cy="500" r="1.5"/><circle cx="378" cy="500" r="1.5"/><circle cx="404" cy="500" r="1.5"/><circle cx="430" cy="500" r="1.5"/><circle cx="456" cy="500" r="1.5"/><circle cx="482" cy="500" r="1.5"/><circle cx="508" cy="500" r="1.5"/><circle cx="534" cy="500" r="1.5"/><circle cx="560" cy="500" r="1.5"/><circle cx="586" cy="500" r="1.5"/><circle cx="612" cy="500" r="1.5"/><circle cx="638" cy="500" r="1.5"/><circle cx="664" cy="500" r="1.5"/><circle cx="690" cy="500" r="1.5"/><circle cx="716" cy="500" r="1.5"/><circle cx="742" cy="500" r="1.5"/><circle cx="768" cy="500" r="1.5"/><circle cx="794" cy="500" r="1.5"/><circle cx="820" cy="500" r="1.5"/><circle cx="846" cy="500" r="1.5"/><circle cx="872" cy="500" r="1.5"/><circle cx="898" cy="500" r="1.5"/><circle cx="924" cy="500" r="1.5"/><circle cx="950" cy="500" r="1.5"/><circle cx="976" cy="500" r="1.5"/><circle cx="1002" cy="500" r="1.5"/><circle cx="1028" cy="500" r="1.5"/><circle cx="1054" cy="500" r="1.5"/><circle cx="1080" cy="500" r="1.5"/><circle cx="1106" cy="500" r="1.5"/><circle cx="1132" cy="500" r="1.5"/><circle cx="1158" cy="500" r="1.5"/><circle cx="40" cy="518" r="1.5"/><circle cx="66" cy="518" r="1.5"/><circle cx="92" cy="518" r="1.5"/><circle cx="118" cy="518" r="1.5"/><circle cx="144" cy="518" r="1.5"/><circle cx="170" cy="518" r="1.5"/><circle cx="196" cy="518" r="1.5"/><circle cx="222" cy="518" r="1.5"/><circle cx="248" cy="518" r="1.5"/><circle cx="274" cy="518" r="1.5"/><circle cx="300" cy="518" r="1.5"/><circle cx="326" cy="518" r="1.5"/><circle cx="352" cy="518" r="1.5"/><circle cx="378" cy="518" r="1.5"/><circle cx="404" cy="518" r="1.5"/><circle cx="430" cy="518" r="1.5"/><circle cx="456" cy="518" r="1.5"/><circle cx="482" cy="518" r="1.5"/><circle cx="508" cy="518" r="1.5"/><circle cx="534" cy="518" r="1.5"/><circle cx="560" cy="518" r="1.5"/><circle cx="586" cy="518" r="1.5"/><circle cx="612" cy="518" r="1.5"/><circle cx="638" cy="518" r="1.5"/><circle cx="664" cy="518" r="1.5"/><circle cx="690" cy="518" r="1.5"/><circle cx="716" cy="518" r="1.5"/><circle cx="742" cy="518" r="1.5"/><circle cx="768" cy="518" r="1.5"/><circle cx="794" cy="518" r="1.5"/><circle cx="820" cy="518" r="1.5"/><circle cx="846" cy="518" r="1.5"/><circle cx="872" cy="518" r="1.5"/><circle cx="898" cy="518" r="1.5"/><circle cx="924" cy="518" r="1.5"/><circle cx="950" cy="518" r="1.5"/><circle cx="976" cy="518" r="1.5"/><circle cx="1002" cy="518" r="1.5"/><circle cx="1028" cy="518" r="1.5"/><circle cx="1054" cy="518" r="1.5"/><circle cx="1080" cy="518" r="1.5"/><circle cx="1106" cy="518" r="1.5"/><circle cx="1132" cy="518" r="1.5"/><circle cx="1158" cy="518" r="1.5"/><circle cx="40" cy="536" r="1.5"/><circle cx="66" cy="536" r="1.5"/><circle cx="92" cy="536" r="1.5"/><circle cx="118" cy="536" r="1.5"/><circle cx="144" cy="536" r="1.5"/><circle cx="170" cy="536" r="1.5"/><circle cx="196" cy="536" r="1.5"/><circle cx="222" cy="536" r="1.5"/><circle cx="248" cy="536" r="1.5"/><circle cx="274" cy="536" r="1.5"/><circle cx="300" cy="536" r="1.5"/><circle cx="326" cy="536" r="1.5"/><circle cx="352" cy="536" r="1.5"/><circle cx="378" cy="536" r="1.5"/><circle cx="404" cy="536" r="1.5"/><circle cx="430" cy="536" r="1.5"/><circle cx="456" cy="536" r="1.5"/><circle cx="482" cy="536" r="1.5"/><circle cx="508" cy="536" r="1.5"/><circle cx="534" cy="536" r="1.5"/><circle cx="560" cy="536" r="1.5"/><circle cx="586" cy="536" r="1.5"/><circle cx="612" cy="536" r="1.5"/><circle cx="638" cy="536" r="1.5"/><circle cx="664" cy="536" r="1.5"/><circle cx="690" cy="536" r="1.5"/><circle cx="716" cy="536" r="1.5"/><circle cx="742" cy="536" r="1.5"/><circle cx="768" cy="536" r="1.5"/><circle cx="794" cy="536" r="1.5"/><circle cx="820" cy="536" r="1.5"/><circle cx="846" cy="536" r="1.5"/><circle cx="872" cy="536" r="1.5"/><circle cx="898" cy="536" r="1.5"/><circle cx="924" cy="536" r="1.5"/><circle cx="950" cy="536" r="1.5"/><circle cx="976" cy="536" r="1.5"/><circle cx="1002" cy="536" r="1.5"/><circle cx="1028" cy="536" r="1.5"/><circle cx="1054" cy="536" r="1.5"/><circle cx="1080" cy="536" r="1.5"/><circle cx="1106" cy="536" r="1.5"/><circle cx="1132" cy="536" r="1.5"/><circle cx="1158" cy="536" r="1.5"/></g>
<g fill="#26221F" opacity="0.08">
<ellipse cx="600" cy="502" rx="195" ry="20"/>
<ellipse cx="244" cy="500" rx="168" ry="16"/>
<ellipse cx="956" cy="500" rx="168" ry="16"/>
</g>
<path d="M538.0,226.0 C394.9,256.7 260.1,256.7 117.0,257.5" fill="none" stroke="#26221F" stroke-width="4.3" stroke-linecap="round"/><circle cx="117.0" cy="257.5" r="4.2" fill="#26221F"/>
<path d="M538.0,226.0 C435.2,267.3 338.5,267.3 235.8,278.5" fill="none" stroke="#26221F" stroke-width="4.3" stroke-linecap="round"/><circle cx="235.8" cy="278.5" r="4.2" fill="#26221F"/>
<path d="M538.0,226.0 C474.3,280.2 414.3,280.2 350.5,304.4" fill="none" stroke="#26221F" stroke-width="4.3" stroke-linecap="round"/><circle cx="350.5" cy="304.4" r="4.2" fill="#26221F"/>
<path d="M662.0,226.0 C805.1,256.7 939.9,256.7 1083.0,257.5" fill="none" stroke="#26221F" stroke-width="4.3" stroke-linecap="round"/><circle cx="1083.0" cy="257.5" r="4.2" fill="#26221F"/>
<path d="M662.0,226.0 C764.8,267.3 861.5,267.3 964.2,278.5" fill="none" stroke="#26221F" stroke-width="4.3" stroke-linecap="round"/><circle cx="964.2" cy="278.5" r="4.2" fill="#26221F"/>
<path d="M662.0,226.0 C725.7,280.2 785.7,280.2 849.5,304.4" fill="none" stroke="#26221F" stroke-width="4.3" stroke-linecap="round"/><circle cx="849.5" cy="304.4" r="4.2" fill="#26221F"/>
<g transform="rotate(10,1066,354)"><rect x="998.0" y="274.0" width="146" height="172" rx="12" fill="#26221F" opacity="0.10"/><path d="M1005.0,268.0 L1117.0,268.0 L1139.0,290.0 L1139.0,428.0 Q1139.0,440.0 1127.0,440.0 L1005.0,440.0 Q993.0,440.0 993.0,428.0 L993.0,280.0 Q993.0,268.0 1005.0,268.0 Z" fill="#FBFDFC" stroke="#26221F" stroke-width="3.5" stroke-linejoin="round"/><path d="M1117.0,268.0 L1117.0,290.0 L1139.0,290.0 Z" fill="#EFE9DD" stroke="#26221F" stroke-width="3" stroke-linejoin="round"/><rect x="1006.0" y="281.0" width="50" height="13" rx="6.5" fill="#6FA86A"/><rect x="1008.0" y="310.0" width="116" height="6" rx="3" fill="#EFE9DD"/><rect x="1008.0" y="326.0" width="100" height="6" rx="3" fill="#EFE9DD"/><rect x="1008.0" y="342.0" width="108" height="6" rx="3" fill="#EFE9DD"/><g fill="#26221F" ><path d="M449 367H782V0H449Z" transform="translate(1046.94,425.00) scale(0.00781,-0.00781)"/><path d="M442 158V-426H150V1120H442V952Q488 1049 563.0 1098.0Q638 1147 739 1147Q931 1147 1037.0 993.0Q1143 839 1143 559Q1143 275 1035.5 123.0Q928 -29 729 -29Q639 -29 567.5 17.5Q496 64 442 158ZM850 561Q850 723 796.0 815.0Q742 907 647 907Q552 907 497.0 815.0Q442 723 442 561Q442 399 497.0 307.0Q552 215 647 215Q742 215 796.0 307.0Q850 399 850 561Z" transform="translate(1056.57,425.00) scale(0.00781,-0.00781)"/><path d="M700 526Q536 526 471.0 484.0Q406 442 406 340Q406 264 451.0 219.0Q496 174 573 174Q689 174 753.0 261.5Q817 349 817 506V526ZM1108 639V0H817V125Q764 51 681.0 11.0Q598 -29 498 -29Q307 -29 200.5 72.0Q94 173 94 354Q94 550 221.0 643.5Q348 737 614 737H817V786Q817 857 765.5 893.5Q714 930 614 930Q509 930 410.5 903.5Q312 877 205 819V1069Q302 1109 402.0 1128.0Q502 1147 614 1147Q887 1147 997.5 1036.0Q1108 925 1108 639Z" transform="translate(1066.20,425.00) scale(0.00781,-0.00781)"/><path d="M1151 811Q1103 855 1038.5 877.0Q974 899 897 899Q804 899 734.5 866.5Q665 834 627 772Q603 734 593.5 680.0Q584 626 584 516V0H291V1120H584V946Q627 1042 716.0 1094.5Q805 1147 924 1147Q984 1147 1041.5 1132.5Q1099 1118 1151 1090Z" transform="translate(1075.84,425.00) scale(0.00781,-0.00781)"/><path d="M383 561Q383 399 437.0 307.0Q491 215 586 215Q681 215 736.0 307.0Q791 399 791 561Q791 723 736.0 815.0Q681 907 586 907Q491 907 437.0 815.0Q383 723 383 561ZM791 158Q737 64 665.5 17.5Q594 -29 504 -29Q305 -29 197.5 123.0Q90 275 90 559Q90 839 196.0 993.0Q302 1147 494 1147Q595 1147 669.5 1098.0Q744 1049 791 952V1120H1083V-426H791Z" transform="translate(1085.47,425.00) scale(0.00781,-0.00781)"/><path d="M160 391V1120H453V436Q453 315 487.0 263.0Q521 211 600 211Q679 211 723.5 281.0Q768 351 768 477V1120H1061V0H768V166Q737 73 662.5 22.0Q588 -29 483 -29Q323 -29 241.5 77.0Q160 183 160 391Z" transform="translate(1095.10,425.00) scale(0.00781,-0.00781)"/><path d="M1102 55Q1000 13 894.0 -8.0Q788 -29 670 -29Q389 -29 240.5 121.5Q92 272 92 555Q92 829 235.0 988.0Q378 1147 625 1147Q874 1147 1011.5 999.5Q1149 852 1149 584V465H390Q391 333 468.0 268.0Q545 203 698 203Q799 203 897.0 232.0Q995 261 1102 324ZM854 685Q852 801 794.5 860.5Q737 920 625 920Q524 920 464.0 858.5Q404 797 393 684Z" transform="translate(1104.73,425.00) scale(0.00781,-0.00781)"/><path d="M690 1438V1120H1073V895H690V365Q690 290 726.5 257.5Q763 225 848 225H1073V0H827Q575 0 486.0 80.5Q397 161 397 379V895H111V1120H397V1438Z" transform="translate(1114.37,425.00) scale(0.00781,-0.00781)"/></g></g>
<g transform="rotate(6,954,376)"><rect x="886.0" y="296.0" width="146" height="172" rx="12" fill="#26221F" opacity="0.10"/><path d="M893.0,290.0 L1005.0,290.0 L1027.0,312.0 L1027.0,450.0 Q1027.0,462.0 1015.0,462.0 L893.0,462.0 Q881.0,462.0 881.0,450.0 L881.0,302.0 Q881.0,290.0 893.0,290.0 Z" fill="#FCFCFE" stroke="#26221F" stroke-width="3.5" stroke-linejoin="round"/><path d="M1005.0,290.0 L1005.0,312.0 L1027.0,312.0 Z" fill="#EFE9DD" stroke="#26221F" stroke-width="3" stroke-linejoin="round"/><rect x="894.0" y="303.0" width="50" height="13" rx="6.5" fill="#EE9A2B"/><rect x="896.0" y="332.0" width="116" height="6" rx="3" fill="#EFE9DD"/><rect x="896.0" y="348.0" width="100" height="6" rx="3" fill="#EFE9DD"/><rect x="896.0" y="364.0" width="108" height="6" rx="3" fill="#EFE9DD"/><g fill="#26221F" ><path d="M449 367H782V0H449Z" transform="translate(973.47,447.00) scale(0.00781,-0.00781)"/><path d="M690 1008Q723 1079 774.0 1113.0Q825 1147 899 1147Q1044 1147 1099.5 1047.0Q1155 947 1155 631V0H915V719Q915 844 896.0 886.0Q877 928 827 928Q777 928 757.0 885.0Q737 842 737 719V0H500V719Q500 842 480.0 885.0Q460 928 410 928Q360 928 341.0 886.0Q322 844 322 719V0H82V1120H295V1004Q320 1070 375.0 1108.5Q430 1147 498 1147Q566 1147 622.0 1106.5Q678 1066 690 1008Z" transform="translate(983.10,447.00) scale(0.00781,-0.00781)"/><path d="M690 1438V1120H1073V895H690V365Q690 290 726.5 257.5Q763 225 848 225H1073V0H827Q575 0 486.0 80.5Q397 161 397 379V895H111V1120H397V1438Z" transform="translate(992.73,447.00) scale(0.00781,-0.00781)"/><path d="M1145 1120 768 584 1178 0H836L616 377L397 0H55L469 584L88 1120H430L616 786L803 1120Z" transform="translate(1002.37,447.00) scale(0.00781,-0.00781)"/></g></g>
<g transform="rotate(-5,858,402)"><rect x="790.0" y="322.0" width="146" height="172" rx="12" fill="#26221F" opacity="0.10"/><path d="M797.0,316.0 L909.0,316.0 L931.0,338.0 L931.0,476.0 Q931.0,488.0 919.0,488.0 L797.0,488.0 Q785.0,488.0 785.0,476.0 L785.0,328.0 Q785.0,316.0 797.0,316.0 Z" fill="#FFFFFF" stroke="#26221F" stroke-width="3.5" stroke-linejoin="round"/><path d="M909.0,316.0 L909.0,338.0 L931.0,338.0 Z" fill="#EFE9DD" stroke="#26221F" stroke-width="3" stroke-linejoin="round"/><rect x="798.0" y="329.0" width="50" height="13" rx="6.5" fill="#5C7C93"/><line x1="826.0" y1="366.0" x2="872.0" y2="360.0" stroke="#26221F" stroke-width="3.0" stroke-linecap="round"/><line x1="872.0" y1="360.0" x2="900.0" y2="392.0" stroke="#26221F" stroke-width="3.0" stroke-linecap="round"/><line x1="900.0" y1="392.0" x2="878.0" y2="420.0" stroke="#26221F" stroke-width="3.0" stroke-linecap="round"/><line x1="878.0" y1="420.0" x2="838.0" y2="432.0" stroke="#26221F" stroke-width="3.0" stroke-linecap="round"/><line x1="838.0" y1="432.0" x2="816.0" y2="402.0" stroke="#26221F" stroke-width="3.0" stroke-linecap="round"/><line x1="816.0" y1="402.0" x2="826.0" y2="366.0" stroke="#26221F" stroke-width="3.0" stroke-linecap="round"/><line x1="826.0" y1="366.0" x2="856.0" y2="396.0" stroke="#26221F" stroke-width="3.0" stroke-linecap="round"/><line x1="856.0" y1="396.0" x2="878.0" y2="420.0" stroke="#26221F" stroke-width="3.0" stroke-linecap="round"/><line x1="856.0" y1="396.0" x2="900.0" y2="392.0" stroke="#26221F" stroke-width="3.0" stroke-linecap="round"/><circle cx="826.0" cy="366.0" r="6.0" fill="#FFFFFF" stroke="#26221F" stroke-width="3.0"/><circle cx="872.0" cy="360.0" r="6.0" fill="#FFFFFF" stroke="#26221F" stroke-width="3.0"/><circle cx="900.0" cy="392.0" r="6.0" fill="#EE9A2B" stroke="#26221F" stroke-width="3.0"/><circle cx="878.0" cy="420.0" r="6.0" fill="#FFFFFF" stroke="#26221F" stroke-width="3.0"/><circle cx="838.0" cy="432.0" r="6.0" fill="#FFFFFF" stroke="#26221F" stroke-width="3.0"/><circle cx="816.0" cy="402.0" r="6.0" fill="#FFFFFF" stroke="#26221F" stroke-width="3.0"/><circle cx="856.0" cy="396.0" r="6.0" fill="#FFFFFF" stroke="#26221F" stroke-width="3.0"/><g fill="#26221F" ><path d="M449 367H782V0H449Z" transform="translate(867.84,473.00) scale(0.00781,-0.00781)"/><path d="M850 43Q850 -209 759.5 -316.5Q669 -424 459 -424H143V-199H377Q475 -199 516.0 -144.0Q557 -89 557 43V895H260V1120H850ZM850 1323H557V1665H850Z" transform="translate(877.47,473.00) scale(0.00781,-0.00781)"/><path d="M991 1085V829Q910 881 822.5 907.5Q735 934 647 934Q549 934 499.0 905.5Q449 877 449 821Q449 741 663 691L674 688L758 668Q918 630 992.5 545.5Q1067 461 1067 317Q1067 144 953.5 57.5Q840 -29 612 -29Q511 -29 405.0 -11.5Q299 6 190 41V297Q287 242 387.5 213.0Q488 184 582 184Q685 184 738.0 214.0Q791 244 791 301Q791 357 753.5 387.0Q716 417 575 451L494 469Q326 507 249.0 588.0Q172 669 172 805Q172 967 289.0 1057.0Q406 1147 618 1147Q713 1147 807.5 1131.5Q902 1116 991 1085Z" transform="translate(887.10,473.00) scale(0.00781,-0.00781)"/><path d="M616 909Q511 909 451.0 816.5Q391 724 391 559Q391 394 451.0 301.5Q511 209 616 209Q722 209 782.0 301.5Q842 394 842 559Q842 724 782.0 816.5Q722 909 616 909ZM98 559Q98 830 238.5 988.5Q379 1147 616 1147Q854 1147 994.5 988.5Q1135 830 1135 559Q1135 288 994.5 129.5Q854 -29 616 -29Q379 -29 238.5 129.5Q98 288 98 559Z" transform="translate(896.73,473.00) scale(0.00781,-0.00781)"/><path d="M1071 727V0H780V682Q780 804 745.5 856.5Q711 909 633 909Q554 909 508.5 838.0Q463 767 463 641V0H172V1120H463V952Q494 1045 569.0 1096.0Q644 1147 750 1147Q909 1147 990.0 1041.5Q1071 936 1071 727Z" transform="translate(906.37,473.00) scale(0.00781,-0.00781)"/></g></g>
<g filter="url(#soft)"><rect x="432.0" y="334.0" width="34.0" height="9" rx="4.5" fill="#B89A63" stroke="#26221F" stroke-width="3"/><rect x="432.0" y="441.0" width="34.0" height="9" rx="4.5" fill="#B89A63" stroke="#26221F" stroke-width="3"/><rect x="435.6" y="339.0" width="4.8" height="106.0" rx="2.4" fill="#D3BC8C" stroke="#26221F" stroke-width="2.6"/><rect x="442.9" y="339.0" width="4.8" height="106.0" rx="2.4" fill="#D3BC8C" stroke="#26221F" stroke-width="2.6"/><rect x="450.3" y="339.0" width="4.8" height="106.0" rx="2.4" fill="#D3BC8C" stroke="#26221F" stroke-width="2.6"/><rect x="457.6" y="339.0" width="4.8" height="106.0" rx="2.4" fill="#D3BC8C" stroke="#26221F" stroke-width="2.6"/><rect x="734.0" y="334.0" width="34.0" height="9" rx="4.5" fill="#B89A63" stroke="#26221F" stroke-width="3"/><rect x="734.0" y="441.0" width="34.0" height="9" rx="4.5" fill="#B89A63" stroke="#26221F" stroke-width="3"/><rect x="737.6" y="339.0" width="4.8" height="106.0" rx="2.4" fill="#D3BC8C" stroke="#26221F" stroke-width="2.6"/><rect x="744.9" y="339.0" width="4.8" height="106.0" rx="2.4" fill="#D3BC8C" stroke="#26221F" stroke-width="2.6"/><rect x="752.3" y="339.0" width="4.8" height="106.0" rx="2.4" fill="#D3BC8C" stroke="#26221F" stroke-width="2.6"/><rect x="759.6" y="339.0" width="4.8" height="106.0" rx="2.4" fill="#D3BC8C" stroke="#26221F" stroke-width="2.6"/><rect x="446.0" y="378.0" width="18" height="24" rx="6" fill="#D3BC8C" stroke="#26221F" stroke-width="3"/><circle cx="450.0" cy="390.0" r="4" fill="#26221F"/><rect x="736.0" y="378.0" width="18" height="24" rx="6" fill="#D3BC8C" stroke="#26221F" stroke-width="3"/><circle cx="750.0" cy="390.0" r="4" fill="#26221F"/><rect x="531.0" y="221.0" width="138.0" height="10" rx="5" fill="#26221F"/><rect x="533" y="228" width="10" height="78" rx="4" fill="#FBF7EF" stroke="#26221F" stroke-width="3"/><ellipse cx="538" cy="306.0" rx="17.0" ry="6.4" fill="#FBF7EF" stroke="#26221F" stroke-width="3"/><path d="M523.0,306.5 A15.0,5 0 0 0 553.0,306.5" fill="none" stroke="#E4D7BE" stroke-width="2.4" opacity="0.9"/><ellipse cx="538" cy="291.6" rx="15.7" ry="6.4" fill="#FBF7EF" stroke="#26221F" stroke-width="3"/><path d="M524.3,292.1 A13.7,5 0 0 0 551.7,292.1" fill="none" stroke="#E4D7BE" stroke-width="2.4" opacity="0.9"/><ellipse cx="538" cy="277.2" rx="14.4" ry="6.4" fill="#FBF7EF" stroke="#26221F" stroke-width="3"/><path d="M525.6,277.7 A12.4,5 0 0 0 550.4,277.7" fill="none" stroke="#E4D7BE" stroke-width="2.4" opacity="0.9"/><ellipse cx="538" cy="262.8" rx="13.1" ry="6.4" fill="#FBF7EF" stroke="#26221F" stroke-width="3"/><path d="M526.9,263.3 A11.1,5 0 0 0 549.1,263.3" fill="none" stroke="#E4D7BE" stroke-width="2.4" opacity="0.9"/><ellipse cx="538" cy="248.4" rx="11.8" ry="6.4" fill="#FBF7EF" stroke="#26221F" stroke-width="3"/><path d="M528.2,248.9 A9.8,5 0 0 0 547.8,248.9" fill="none" stroke="#E4D7BE" stroke-width="2.4" opacity="0.9"/><ellipse cx="538" cy="234.0" rx="10.5" ry="6.4" fill="#FBF7EF" stroke="#26221F" stroke-width="3"/><path d="M529.5,234.5 A8.5,5 0 0 0 546.5,234.5" fill="none" stroke="#E4D7BE" stroke-width="2.4" opacity="0.9"/><circle cx="538" cy="226" r="7" fill="#26221F"/><rect x="535" y="213" width="6" height="15" rx="3" fill="#26221F"/><rect x="657" y="228" width="10" height="78" rx="4" fill="#FBF7EF" stroke="#26221F" stroke-width="3"/><ellipse cx="662" cy="306.0" rx="17.0" ry="6.4" fill="#FBF7EF" stroke="#26221F" stroke-width="3"/><path d="M647.0,306.5 A15.0,5 0 0 0 677.0,306.5" fill="none" stroke="#E4D7BE" stroke-width="2.4" opacity="0.9"/><ellipse cx="662" cy="291.6" rx="15.7" ry="6.4" fill="#FBF7EF" stroke="#26221F" stroke-width="3"/><path d="M648.3,292.1 A13.7,5 0 0 0 675.7,292.1" fill="none" stroke="#E4D7BE" stroke-width="2.4" opacity="0.9"/><ellipse cx="662" cy="277.2" rx="14.4" ry="6.4" fill="#FBF7EF" stroke="#26221F" stroke-width="3"/><path d="M649.6,277.7 A12.4,5 0 0 0 674.4,277.7" fill="none" stroke="#E4D7BE" stroke-width="2.4" opacity="0.9"/><ellipse cx="662" cy="262.8" rx="13.1" ry="6.4" fill="#FBF7EF" stroke="#26221F" stroke-width="3"/><path d="M650.9,263.3 A11.1,5 0 0 0 673.1,263.3" fill="none" stroke="#E4D7BE" stroke-width="2.4" opacity="0.9"/><ellipse cx="662" cy="248.4" rx="11.8" ry="6.4" fill="#FBF7EF" stroke="#26221F" stroke-width="3"/><path d="M652.2,248.9 A9.8,5 0 0 0 671.8,248.9" fill="none" stroke="#E4D7BE" stroke-width="2.4" opacity="0.9"/><ellipse cx="662" cy="234.0" rx="10.5" ry="6.4" fill="#FBF7EF" stroke="#26221F" stroke-width="3"/><path d="M653.5,234.5 A8.5,5 0 0 0 670.5,234.5" fill="none" stroke="#E4D7BE" stroke-width="2.4" opacity="0.9"/><circle cx="662" cy="226" r="7" fill="#26221F"/><rect x="659" y="213" width="6" height="15" rx="3" fill="#26221F"/><rect x="454.0" y="476.0" width="292.0" height="16" rx="7" fill="#D3BC8C" stroke="#26221F" stroke-width="3.4"/><rect x="498.0" y="490.0" width="32" height="16" rx="6" fill="#B89A63" stroke="#26221F" stroke-width="3.2"/><rect x="670.0" y="490.0" width="32" height="16" rx="6" fill="#B89A63" stroke="#26221F" stroke-width="3.2"/><rect x="464.0" y="300" width="272" height="180" rx="30" fill="url(#body)" stroke="#26221F" stroke-width="5"/><rect x="476.0" y="310" width="248" height="18" rx="9" fill="#D3BC8C" opacity="0.55"/><circle cx="494.0" cy="319" r="3" fill="#26221F" opacity="0.5"/><circle cx="600.0" cy="319" r="3" fill="#26221F" opacity="0.5"/><circle cx="706.0" cy="319" r="3" fill="#26221F" opacity="0.5"/><rect x="592.0" y="306" width="16" height="168" rx="6" fill="#D3BC8C" stroke="#26221F" stroke-width="3"/><line x1="600.0" y1="312" x2="600.0" y2="468" stroke="#26221F" stroke-width="2" opacity="0.35"/><rect x="493.0" y="330.0" width="214" height="114" rx="20" fill="#FBF7EF" stroke="#26221F" stroke-width="3.6"/><rect x="499.0" y="336.0" width="202" height="13" rx="6.5" fill="#26221F" opacity="0.05"/><circle cx="554" cy="374" r="15" fill="#5FAE63" stroke="#26221F" stroke-width="3.2"/><circle cx="548.9" cy="368.6" r="4.5" fill="#FFFFFF" opacity="0.9"/><circle cx="646" cy="374" r="15" fill="#EE9A2B" stroke="#26221F" stroke-width="3.2"/><circle cx="640.9" cy="368.6" r="4.5" fill="#FFFFFF" opacity="0.9"/><ellipse cx="530.0" cy="396.0" rx="11" ry="6.5" fill="#EFA56A" opacity="0.45"/><ellipse cx="670.0" cy="396.0" rx="11" ry="6.5" fill="#EFA56A" opacity="0.45"/><path d="M570.0,414.0 Q600.0,436.0 630.0,414.0" fill="none" stroke="#26221F" stroke-width="5" stroke-linecap="round"/><rect x="548.0" y="446.0" width="104" height="24" rx="7" fill="#26221F"/><path d="M9 0 L1 12 L6.4 12 L4 22 L13.5 8 L8 8 Z" transform="translate(561.54,449.42) scale(0.780)" fill="#F6B22F" stroke-linejoin="round"/><rect x="582.0" y="452.0" width="56" height="2.6" rx="1.3" fill="#FBF7EF" opacity="0.7"/><rect x="582.0" y="457.4" width="46" height="2.6" rx="1.3" fill="#FBF7EF" opacity="0.7"/><rect x="582.0" y="462.8" width="36" height="2.6" rx="1.3" fill="#FBF7EF" opacity="0.7"/></g>
<g transform="rotate(-10,134,354)"><rect x="66.0" y="274.0" width="146" height="172" rx="12" fill="#26221F" opacity="0.10"/><path d="M73.0,268.0 L185.0,268.0 L207.0,290.0 L207.0,428.0 Q207.0,440.0 195.0,440.0 L73.0,440.0 Q61.0,440.0 61.0,428.0 L61.0,280.0 Q61.0,268.0 73.0,268.0 Z" fill="#FCFCFE" stroke="#26221F" stroke-width="3.5" stroke-linejoin="round"/><path d="M185.0,268.0 L185.0,290.0 L207.0,290.0 Z" fill="#EFE9DD" stroke="#26221F" stroke-width="3" stroke-linejoin="round"/><rect x="74.0" y="281.0" width="50" height="13" rx="6.5" fill="#6FA86A"/><rect x="76.0" y="310.0" width="116" height="6" rx="3" fill="#EFE9DD"/><rect x="76.0" y="326.0" width="100" height="6" rx="3" fill="#EFE9DD"/><rect x="76.0" y="342.0" width="108" height="6" rx="3" fill="#EFE9DD"/><g fill="#26221F" ><path d="M449 367H782V0H449Z" transform="translate(76.00,425.00) scale(0.00781,-0.00781)"/><path d="M700 526Q536 526 471.0 484.0Q406 442 406 340Q406 264 451.0 219.0Q496 174 573 174Q689 174 753.0 261.5Q817 349 817 506V526ZM1108 639V0H817V125Q764 51 681.0 11.0Q598 -29 498 -29Q307 -29 200.5 72.0Q94 173 94 354Q94 550 221.0 643.5Q348 737 614 737H817V786Q817 857 765.5 893.5Q714 930 614 930Q509 930 410.5 903.5Q312 877 205 819V1069Q302 1109 402.0 1128.0Q502 1147 614 1147Q887 1147 997.5 1036.0Q1108 925 1108 639Z" transform="translate(85.63,425.00) scale(0.00781,-0.00781)"/><path d="M160 391V1120H453V436Q453 315 487.0 263.0Q521 211 600 211Q679 211 723.5 281.0Q768 351 768 477V1120H1061V0H768V166Q737 73 662.5 22.0Q588 -29 483 -29Q323 -29 241.5 77.0Q160 183 160 391Z" transform="translate(95.27,425.00) scale(0.00781,-0.00781)"/><path d="M1145 1120 768 584 1178 0H836L616 377L397 0H55L469 584L88 1120H430L616 786L803 1120Z" transform="translate(104.90,425.00) scale(0.00781,-0.00781)"/></g></g>
<g transform="rotate(-6,246,376)"><rect x="178.0" y="296.0" width="146" height="172" rx="12" fill="#26221F" opacity="0.10"/><path d="M185.0,290.0 L297.0,290.0 L319.0,312.0 L319.0,450.0 Q319.0,462.0 307.0,462.0 L185.0,462.0 Q173.0,462.0 173.0,450.0 L173.0,302.0 Q173.0,290.0 185.0,290.0 Z" fill="#FCFDFE" stroke="#26221F" stroke-width="3.5" stroke-linejoin="round"/><path d="M297.0,290.0 L297.0,312.0 L319.0,312.0 Z" fill="#EFE9DD" stroke="#26221F" stroke-width="3" stroke-linejoin="round"/><rect x="186.0" y="303.0" width="50" height="13" rx="6.5" fill="#5C7C93"/><rect x="188.0" y="332.0" width="116" height="6" rx="3" fill="#EFE9DD"/><rect x="188.0" y="348.0" width="100" height="6" rx="3" fill="#EFE9DD"/><rect x="188.0" y="364.0" width="108" height="6" rx="3" fill="#EFE9DD"/><g fill="#26221F" ><path d="M449 367H782V0H449Z" transform="translate(188.00,447.00) scale(0.00781,-0.00781)"/><path d="M1151 811Q1103 855 1038.5 877.0Q974 899 897 899Q804 899 734.5 866.5Q665 834 627 772Q603 734 593.5 680.0Q584 626 584 516V0H291V1120H584V946Q627 1042 716.0 1094.5Q805 1147 924 1147Q984 1147 1041.5 1132.5Q1099 1118 1151 1090Z" transform="translate(197.63,447.00) scale(0.00781,-0.00781)"/><path d="M700 526Q536 526 471.0 484.0Q406 442 406 340Q406 264 451.0 219.0Q496 174 573 174Q689 174 753.0 261.5Q817 349 817 506V526ZM1108 639V0H817V125Q764 51 681.0 11.0Q598 -29 498 -29Q307 -29 200.5 72.0Q94 173 94 354Q94 550 221.0 643.5Q348 737 614 737H817V786Q817 857 765.5 893.5Q714 930 614 930Q509 930 410.5 903.5Q312 877 205 819V1069Q302 1109 402.0 1128.0Q502 1147 614 1147Q887 1147 997.5 1036.0Q1108 925 1108 639Z" transform="translate(207.27,447.00) scale(0.00781,-0.00781)"/><path d="M0 1120H244L377 262L498 827H735L854 262L989 1120H1233L1030 0H752L616 582L481 0H203Z" transform="translate(216.90,447.00) scale(0.00781,-0.00781)"/></g></g>
<g transform="rotate(5,342,402)"><rect x="274.0" y="322.0" width="146" height="172" rx="12" fill="#26221F" opacity="0.10"/><path d="M281.0,316.0 L393.0,316.0 L415.0,338.0 L415.0,476.0 Q415.0,488.0 403.0,488.0 L281.0,488.0 Q269.0,488.0 269.0,476.0 L269.0,328.0 Q269.0,316.0 281.0,316.0 Z" fill="#FFFFFF" stroke="#26221F" stroke-width="3.5" stroke-linejoin="round"/><path d="M393.0,316.0 L393.0,338.0 L415.0,338.0 Z" fill="#EFE9DD" stroke="#26221F" stroke-width="3" stroke-linejoin="round"/><rect x="282.0" y="329.0" width="50" height="13" rx="6.5" fill="#EE9A2B"/><line x1="310.0" y1="366.0" x2="356.0" y2="360.0" stroke="#26221F" stroke-width="3.0" stroke-linecap="round"/><line x1="356.0" y1="360.0" x2="384.0" y2="392.0" stroke="#26221F" stroke-width="3.0" stroke-linecap="round"/><line x1="384.0" y1="392.0" x2="362.0" y2="420.0" stroke="#26221F" stroke-width="3.0" stroke-linecap="round"/><line x1="362.0" y1="420.0" x2="322.0" y2="432.0" stroke="#26221F" stroke-width="3.0" stroke-linecap="round"/><line x1="322.0" y1="432.0" x2="300.0" y2="402.0" stroke="#26221F" stroke-width="3.0" stroke-linecap="round"/><line x1="300.0" y1="402.0" x2="310.0" y2="366.0" stroke="#26221F" stroke-width="3.0" stroke-linecap="round"/><line x1="310.0" y1="366.0" x2="340.0" y2="396.0" stroke="#26221F" stroke-width="3.0" stroke-linecap="round"/><line x1="340.0" y1="396.0" x2="362.0" y2="420.0" stroke="#26221F" stroke-width="3.0" stroke-linecap="round"/><line x1="340.0" y1="396.0" x2="384.0" y2="392.0" stroke="#26221F" stroke-width="3.0" stroke-linecap="round"/><circle cx="310.0" cy="366.0" r="6.0" fill="#FFFFFF" stroke="#26221F" stroke-width="3.0"/><circle cx="356.0" cy="360.0" r="6.0" fill="#FFFFFF" stroke="#26221F" stroke-width="3.0"/><circle cx="384.0" cy="392.0" r="6.0" fill="#EE9A2B" stroke="#26221F" stroke-width="3.0"/><circle cx="362.0" cy="420.0" r="6.0" fill="#FFFFFF" stroke="#26221F" stroke-width="3.0"/><circle cx="322.0" cy="432.0" r="6.0" fill="#FFFFFF" stroke="#26221F" stroke-width="3.0"/><circle cx="300.0" cy="402.0" r="6.0" fill="#FFFFFF" stroke="#26221F" stroke-width="3.0"/><circle cx="340.0" cy="396.0" r="6.0" fill="#FFFFFF" stroke="#26221F" stroke-width="3.0"/><g fill="#26221F" ><path d="M449 367H782V0H449Z" transform="translate(284.00,473.00) scale(0.00781,-0.00781)"/><path d="M690 1008Q723 1079 774.0 1113.0Q825 1147 899 1147Q1044 1147 1099.5 1047.0Q1155 947 1155 631V0H915V719Q915 844 896.0 886.0Q877 928 827 928Q777 928 757.0 885.0Q737 842 737 719V0H500V719Q500 842 480.0 885.0Q460 928 410 928Q360 928 341.0 886.0Q322 844 322 719V0H82V1120H295V1004Q320 1070 375.0 1108.5Q430 1147 498 1147Q566 1147 622.0 1106.5Q678 1066 690 1008Z" transform="translate(293.63,473.00) scale(0.00781,-0.00781)"/></g></g>
<g fill="#26221F" ><path d="M405 566Q474 566 530.0 531.0Q586 496 618.5 431.0Q651 366 651 280Q651 194 618.5 128.5Q586 63 530.0 27.5Q474 -8 405 -8Q347 -8 302.5 16.0Q258 40 233 78V-266H62V558H233V479Q258 518 302.0 542.0Q346 566 405 566ZM354 417Q303 417 267.5 380.0Q232 343 232 279Q232 215 267.5 178.0Q303 141 354 141Q405 141 441.0 178.5Q477 216 477 280Q477 344 441.5 380.5Q406 417 354 417Z" transform="translate(392.73,108.00) scale(0.09200,-0.09200)"/><path d="M28 279Q28 365 66.0 430.5Q104 496 170.0 531.0Q236 566 318 566Q400 566 466.0 531.0Q532 496 570.0 430.5Q608 365 608 279Q608 193 569.5 127.5Q531 62 464.5 27.0Q398 -8 316 -8Q234 -8 168.5 27.0Q103 62 65.5 127.0Q28 192 28 279ZM434 279Q434 346 400.5 382.0Q367 418 318 418Q268 418 235.0 382.5Q202 347 202 279Q202 212 234.5 176.0Q267 140 316 140Q365 140 399.5 176.0Q434 212 434 279Z" transform="translate(455.20,108.00) scale(0.09200,-0.09200)"/><path d="M863 558 712 0H523L435 362L344 0H156L4 558H175L254 159L348 558H529L624 161L702 558Z" transform="translate(513.80,108.00) scale(0.09200,-0.09200)"/><path d="M585 238H198Q202 186 231.5 158.5Q261 131 304 131Q368 131 393 185H575Q561 130 524.5 86.0Q488 42 433.0 17.0Q378 -8 310 -8Q228 -8 164.0 27.0Q100 62 64.0 127.0Q28 192 28 279Q28 366 63.5 431.0Q99 496 163.0 531.0Q227 566 310 566Q391 566 454.0 532.0Q517 498 552.5 435.0Q588 372 588 288Q588 264 585 238ZM413 333Q413 377 383.0 403.0Q353 429 308 429Q265 429 235.5 404.0Q206 379 199 333Z" transform="translate(593.48,108.00) scale(0.09200,-0.09200)"/><path d="M408 564V383H361Q297 383 265.0 355.5Q233 328 233 259V0H62V558H233V465Q263 511 308.0 537.5Q353 564 408 564Z" transform="translate(650.15,108.00) scale(0.09200,-0.09200)"/></g>
<g fill="#EE9A2B" ><path d="M46 708Q46 748 74.5 774.5Q103 801 148 801Q192 801 220.5 774.5Q249 748 249 708Q249 669 220.5 642.5Q192 616 148 616Q103 616 74.5 642.5Q46 669 46 708ZM233 558V0H62V558Z" transform="translate(689.52,108.00) scale(0.09200,-0.09200)"/><path d="M28 279Q28 365 66.0 430.5Q104 496 170.0 531.0Q236 566 318 566Q400 566 466.0 531.0Q532 496 570.0 430.5Q608 365 608 279Q608 193 569.5 127.5Q531 62 464.5 27.0Q398 -8 316 -8Q234 -8 168.5 27.0Q103 62 65.5 127.0Q28 192 28 279ZM434 279Q434 346 400.5 382.0Q367 418 318 418Q268 418 235.0 382.5Q202 347 202 279Q202 212 234.5 176.0Q267 140 316 140Q365 140 399.5 176.0Q434 212 434 279Z" transform="translate(716.66,108.00) scale(0.09200,-0.09200)"/></g>
<path d="M9 0 L1 12 L6.4 12 L4 22 L13.5 8 L8 8 Z" transform="translate(779.97,44.10) scale(1.900)" fill="#F6B22F" stroke="#26221F" stroke-width="1.79" stroke-linejoin="round"/>
<g fill="#7A7163"><text x="600" y="176" text-anchor="middle" font-size="22" font-weight="500">compiler infrastructure for power systems</text></g>
</svg>