<svg xmlns="http://www.w3.org/2000/svg" viewBox="0 0 512 512" width="512" height="512">
<defs>
  <radialGradient id="glow" cx="50%" cy="58%" r="65%">
    <stop offset="0%" stop-color="#FBF7EF"/>
    <stop offset="100%" stop-color="#F4EEE4"/>
  </radialGradient>
  <linearGradient id="body" x1="0" y1="0" x2="0" y2="1">
    <stop offset="0%" stop-color="#EEE0C8"/>
    <stop offset="100%" stop-color="#E6D3AF"/>
  </linearGradient>
  <filter id="soft" x="-25%" y="-25%" width="150%" height="150%">
    <feDropShadow dx="0" dy="7" stdDeviation="9" flood-color="#26221F" flood-opacity="0.15"/>
  </filter>
  <clipPath id="rc"><rect x="0" y="0" width="512" height="512" rx="115"/></clipPath>
</defs>
<g clip-path="url(#rc)">
<rect x="0" y="0" width="512" height="512" fill="url(#glow)"/>
<ellipse cx="256" cy="420" rx="159" ry="23" fill="#26221F" opacity="0.10"/>
<g transform="translate(-542.72,-220.98) scale(1.3312)"><g filter="url(#soft)"><rect x="432.0" y="334.0" width="34.0" height="9" rx="4.5" fill="#B89A63" stroke="#26221F" stroke-width="3"/><rect x="432.0" y="441.0" width="34.0" height="9" rx="4.5" fill="#B89A63" stroke="#26221F" stroke-width="3"/><rect x="435.6" y="339.0" width="4.8" height="106.0" rx="2.4" fill="#D3BC8C" stroke="#26221F" stroke-width="2.6"/><rect x="442.9" y="339.0" width="4.8" height="106.0" rx="2.4" fill="#D3BC8C" stroke="#26221F" stroke-width="2.6"/><rect x="450.3" y="339.0" width="4.8" height="106.0" rx="2.4" fill="#D3BC8C" stroke="#26221F" stroke-width="2.6"/><rect x="457.6" y="339.0" width="4.8" height="106.0" rx="2.4" fill="#D3BC8C" stroke="#26221F" stroke-width="2.6"/><rect x="734.0" y="334.0" width="34.0" height="9" rx="4.5" fill="#B89A63" stroke="#26221F" stroke-width="3"/><rect x="734.0" y="441.0" width="34.0" height="9" rx="4.5" fill="#B89A63" stroke="#26221F" stroke-width="3"/><rect x="737.6" y="339.0" width="4.8" height="106.0" rx="2.4" fill="#D3BC8C" stroke="#26221F" stroke-width="2.6"/><rect x="744.9" y="339.0" width="4.8" height="106.0" rx="2.4" fill="#D3BC8C" stroke="#26221F" stroke-width="2.6"/><rect x="752.3" y="339.0" width="4.8" height="106.0" rx="2.4" fill="#D3BC8C" stroke="#26221F" stroke-width="2.6"/><rect x="759.6" y="339.0" width="4.8" height="106.0" rx="2.4" fill="#D3BC8C" stroke="#26221F" stroke-width="2.6"/><rect x="446.0" y="378.0" width="18" height="24" rx="6" fill="#D3BC8C" stroke="#26221F" stroke-width="3"/><circle cx="450.0" cy="390.0" r="4" fill="#26221F"/><rect x="736.0" y="378.0" width="18" height="24" rx="6" fill="#D3BC8C" stroke="#26221F" stroke-width="3"/><circle cx="750.0" cy="390.0" r="4" fill="#26221F"/><rect x="531.0" y="221.0" width="138.0" height="10" rx="5" fill="#26221F"/><rect x="533" y="228" width="10" height="78" rx="4" fill="#FBF7EF" stroke="#26221F" stroke-width="3"/><ellipse cx="538" cy="306.0" rx="17.0" ry="6.4" fill="#FBF7EF" stroke="#26221F" stroke-width="3"/><path d="M523.0,306.5 A15.0,5 0 0 0 553.0,306.5" fill="none" stroke="#E4D7BE" stroke-width="2.4" opacity="0.9"/><ellipse cx="538" cy="291.6" rx="15.7" ry="6.4" fill="#FBF7EF" stroke="#26221F" stroke-width="3"/><path d="M524.3,292.1 A13.7,5 0 0 0 551.7,292.1" fill="none" stroke="#E4D7BE" stroke-width="2.4" opacity="0.9"/><ellipse cx="538" cy="277.2" rx="14.4" ry="6.4" fill="#FBF7EF" stroke="#26221F" stroke-width="3"/><path d="M525.6,277.7 A12.4,5 0 0 0 550.4,277.7" fill="none" stroke="#E4D7BE" stroke-width="2.4" opacity="0.9"/><ellipse cx="538" cy="262.8" rx="13.1" ry="6.4" fill="#FBF7EF" stroke="#26221F" stroke-width="3"/><path d="M526.9,263.3 A11.1,5 0 0 0 549.1,263.3" fill="none" stroke="#E4D7BE" stroke-width="2.4" opacity="0.9"/><ellipse cx="538" cy="248.4" rx="11.8" ry="6.4" fill="#FBF7EF" stroke="#26221F" stroke-width="3"/><path d="M528.2,248.9 A9.8,5 0 0 0 547.8,248.9" fill="none" stroke="#E4D7BE" stroke-width="2.4" opacity="0.9"/><ellipse cx="538" cy="234.0" rx="10.5" ry="6.4" fill="#FBF7EF" stroke="#26221F" stroke-width="3"/><path d="M529.5,234.5 A8.5,5 0 0 0 546.5,234.5" fill="none" stroke="#E4D7BE" stroke-width="2.4" opacity="0.9"/><circle cx="538" cy="226" r="7" fill="#26221F"/><rect x="535" y="213" width="6" height="15" rx="3" fill="#26221F"/><rect x="657" y="228" width="10" height="78" rx="4" fill="#FBF7EF" stroke="#26221F" stroke-width="3"/><ellipse cx="662" cy="306.0" rx="17.0" ry="6.4" fill="#FBF7EF" stroke="#26221F" stroke-width="3"/><path d="M647.0,306.5 A15.0,5 0 0 0 677.0,306.5" fill="none" stroke="#E4D7BE" stroke-width="2.4" opacity="0.9"/><ellipse cx="662" cy="291.6" rx="15.7" ry="6.4" fill="#FBF7EF" stroke="#26221F" stroke-width="3"/><path d="M648.3,292.1 A13.7,5 0 0 0 675.7,292.1" fill="none" stroke="#E4D7BE" stroke-width="2.4" opacity="0.9"/><ellipse cx="662" cy="277.2" rx="14.4" ry="6.4" fill="#FBF7EF" stroke="#26221F" stroke-width="3"/><path d="M649.6,277.7 A12.4,5 0 0 0 674.4,277.7" fill="none" stroke="#E4D7BE" stroke-width="2.4" opacity="0.9"/><ellipse cx="662" cy="262.8" rx="13.1" ry="6.4" fill="#FBF7EF" stroke="#26221F" stroke-width="3"/><path d="M650.9,263.3 A11.1,5 0 0 0 673.1,263.3" fill="none" stroke="#E4D7BE" stroke-width="2.4" opacity="0.9"/><ellipse cx="662" cy="248.4" rx="11.8" ry="6.4" fill="#FBF7EF" stroke="#26221F" stroke-width="3"/><path d="M652.2,248.9 A9.8,5 0 0 0 671.8,248.9" fill="none" stroke="#E4D7BE" stroke-width="2.4" opacity="0.9"/><ellipse cx="662" cy="234.0" rx="10.5" ry="6.4" fill="#FBF7EF" stroke="#26221F" stroke-width="3"/><path d="M653.5,234.5 A8.5,5 0 0 0 670.5,234.5" fill="none" stroke="#E4D7BE" stroke-width="2.4" opacity="0.9"/><circle cx="662" cy="226" r="7" fill="#26221F"/><rect x="659" y="213" width="6" height="15" rx="3" fill="#26221F"/><rect x="454.0" y="476.0" width="292.0" height="16" rx="7" fill="#D3BC8C" stroke="#26221F" stroke-width="3.4"/><rect x="498.0" y="490.0" width="32" height="16" rx="6" fill="#B89A63" stroke="#26221F" stroke-width="3.2"/><rect x="670.0" y="490.0" width="32" height="16" rx="6" fill="#B89A63" stroke="#26221F" stroke-width="3.2"/><rect x="464.0" y="300" width="272" height="180" rx="30" fill="url(#body)" stroke="#26221F" stroke-width="5"/><rect x="476.0" y="310" width="248" height="18" rx="9" fill="#D3BC8C" opacity="0.55"/><circle cx="494.0" cy="319" r="3" fill="#26221F" opacity="0.5"/><circle cx="600.0" cy="319" r="3" fill="#26221F" opacity="0.5"/><circle cx="706.0" cy="319" r="3" fill="#26221F" opacity="0.5"/><rect x="592.0" y="306" width="16" height="168" rx="6" fill="#D3BC8C" stroke="#26221F" stroke-width="3"/><line x1="600.0" y1="312" x2="600.0" y2="468" stroke="#26221F" stroke-width="2" opacity="0.35"/><rect x="493.0" y="330.0" width="214" height="114" rx="20" fill="#FBF7EF" stroke="#26221F" stroke-width="3.6"/><rect x="499.0" y="336.0" width="202" height="13" rx="6.5" fill="#26221F" opacity="0.05"/><circle cx="554" cy="374" r="15" fill="#5FAE63" stroke="#26221F" stroke-width="3.2"/><circle cx="548.9" cy="368.6" r="4.5" fill="#FFFFFF" opacity="0.9"/><circle cx="646" cy="374" r="15" fill="#EE9A2B" stroke="#26221F" stroke-width="3.2"/><circle cx="640.9" cy="368.6" r="4.5" fill="#FFFFFF" opacity="0.9"/><ellipse cx="530.0" cy="396.0" rx="11" ry="6.5" fill="#EFA56A" opacity="0.45"/><ellipse cx="670.0" cy="396.0" rx="11" ry="6.5" fill="#EFA56A" opacity="0.45"/><path d="M570.0,414.0 Q600.0,436.0 630.0,414.0" fill="none" stroke="#26221F" stroke-width="5" stroke-linecap="round"/><rect x="548.0" y="446.0" width="104" height="24" rx="7" fill="#26221F"/><path d="M9 0 L1 12 L6.4 12 L4 22 L13.5 8 L8 8 Z" transform="translate(561.54,449.42) scale(0.780)" fill="#F6B22F" stroke-linejoin="round"/><rect x="582.0" y="452.0" width="56" height="2.6" rx="1.3" fill="#FBF7EF" opacity="0.7"/><rect x="582.0" y="457.4" width="46" height="2.6" rx="1.3" fill="#FBF7EF" opacity="0.7"/><rect x="582.0" y="462.8" width="36" height="2.6" rx="1.3" fill="#FBF7EF" opacity="0.7"/></g></g>
</g>
<rect x="4.6" y="4.6" width="502.8" height="502.8" rx="110.6" fill="none" stroke="#26221F" stroke-width="9.2" opacity="0.92"/>
</svg>